<?xml version="1.0" encoding="UTF-8"?>
<svg width="31px" height="31px" viewBox="0 0 31 31" version="1.1" xmlns="http://www.w3.org/2000/svg" xmlns:xlink="http://www.w3.org/1999/xlink">
    <title>noun_Arrow_3771846 Copy 2</title>
    <g id="Final-Lukas" stroke="none" stroke-width="1" fill="none" fill-rule="evenodd">
        <g id="Completed-Notify-(03)-Copy" transform="translate(-1142.000000, -787.000000)" fill="#5C5C5C" fill-rule="nonzero">
            <g id="noun_Arrow_3771846-Copy-2" transform="translate(1142.000000, 787.000000)">
                <path d="M15.5,31 C24.025,31 31,24.025 31,15.5 C31,6.975 24.025,0 15.5,0 C6.975,0 0,6.975 0,15.5 C0,24.025 6.975,31 15.5,31 Z M15.5,1.19230769 C23.3692308,1.19230769 29.8076923,7.63076923 29.8076923,15.5 C29.8076923,23.3692308 23.3692308,29.8076923 15.5,29.8076923 C7.63076923,29.8076923 1.19230769,23.3692308 1.19230769,15.5 C1.19230769,7.63076923 7.63076923,1.19230769 15.5,1.19230769 Z" id="Shape"></path>
                <polygon id="Path" points="15.1489362 19.1860465 15.9680851 20 21 15 15.9680851 10 15.1489362 10.8139535 18.7765957 14.4186047 10 14.4186047 10 15.5813953 18.7765957 15.5813953"></polygon>
            </g>
        </g>
    </g>
</svg>