<svg width="217" height="55" viewBox="0 0 217 55" fill="none" xmlns="http://www.w3.org/2000/svg">
<path d="M43.6036 24.7H30.5879V48.638H43.6036V24.7Z" fill="#4F37FD"/>
<path d="M60.3252 6.87172H36.415V18.8535H60.3195L60.3252 6.87172Z" fill="#2CCD9A"/>
<path d="M30.5878 12.7182H6.70312V24.6999H30.5878V12.7182Z" fill="#4F37FD"/>
<path d="M186.169 20.5069H181.085V48.8192H185.934V30.1756H186.16L195.764 48.822H195.948L205.588 30.1756H205.771V48.8192H210.559V20.5069H205.938L196.094 39.7055H195.95L186.169 20.5069ZM76.5241 48.8192H81.3259V24.7198H93.9743V20.5069H81.3428V24.7198H66.4233V28.9242H76.5241V48.8192ZM118.712 20.5069V24.3008H127.821V48.8192H132.671V24.3093H141.772V20.5069H118.712ZM168.382 42.1686C168.396 42.4891 168.348 42.8092 168.241 43.1114C168.12 43.4121 167.938 43.6848 167.707 43.9127C167.488 44.1507 167.215 44.3331 166.911 44.4449C166.608 44.5523 166.288 44.6013 165.967 44.5893H155.468C155.148 44.6038 154.829 44.5548 154.528 44.4449C154.218 44.3325 153.938 44.1504 153.709 43.9127C153.479 43.689 153.304 43.4147 153.197 43.1114C153.081 42.8116 153.032 42.4897 153.053 42.1686V20.5069H148.204V41.9421C148.159 42.8006 148.284 43.6595 148.57 44.4698C148.857 45.28 149.3 46.0257 149.874 46.6643C150.448 47.3029 151.142 47.8219 151.916 48.1916C152.691 48.5614 153.53 48.7746 154.387 48.8192C154.618 48.8319 154.85 48.8319 155.081 48.8192H166.38C167.236 48.8638 168.093 48.7389 168.901 48.4515C169.709 48.1642 170.452 47.72 171.089 47.1444C171.725 46.5689 172.243 45.8732 172.611 45.0971C172.979 44.3211 173.191 43.4799 173.235 42.6216C173.249 42.3972 173.249 42.1722 173.235 41.9478V20.5069H168.382V42.1686ZM108.868 37.4377H99.4738L104.1 26.0335H104.264L108.868 37.4377ZM106.823 20.5069H101.807L90.0595 48.8192H94.7878L97.7085 41.642H110.583L113.487 48.8022H118.523L106.823 20.5069Z" fill="#1C1E4F"/>
</svg>
